#!OML:ASF X:\für Bonn\!DataBase\2005_08_12_Daniel\c3d\Daniel.ASF
:FULLY-SPECIFIED
:DEGREES
46
root -2.82048 13.1088 -2.90895 304.631 -81.8721 -322.929
lowerback 38.0971 -2.75587 -1.30974
upperback 3.2038 -5.18781 -3.24444
thorax -15.5493 -2.47162 -0.442984
lowerneck 6.41522 2.11218 -3.26395
upperneck -1.38815 2.55286 0.409317
head -1.56873 1.27931 0.596775
rclavicle -1.88348e-014 9.93923e-016
rhumerus 62.3714 -3.75412 -104.722
rradius 12.5556
rwrist 71.5949
rhand -17.2038 14.1151
rfingers 7.12502
rthumb 9.03871 -15.6713
lclavicle -1.88348e-014 9.93923e-016
lhumerus 66.0977 -0.438764 90.7965
lradius 10.7094
lwrist -62.0639
lhand -14.9497 2.41597
lfingers 7.12502
lthumb 11.2132 32.0963
rfemur -30.5886 -26.366 -5.50684
rtibia 99.139
rfoot -21.7532 24.5435
rtoes -6.62765
lfemur -37.2873 5.76379 -16.2971
ltibia 94.1972
lfoot -31.118 -17.8001
ltoes -0.037917
47
root -2.81437 12.9073 -2.90867 304.493 -81.9075 -323.116
lowerback 38.5939 -2.76895 -1.23433
upperback 3.31751 -5.20044 -3.25012
thorax -15.6057 -2.4853 -0.466272
lowerneck 6.68889 2.1179 -3.23185
upperneck -1.64091 2.55181 0.394591
head -1.69855 1.28141 0.583844
rclavicle -1.11319e-014 1.09332e-014
rhumerus 62.5975 -3.51642 -104.424
rradius 12.6412
rwrist 71.2113
rhand -17.366 14.2386
rfingers 7.12502
rthumb 8.88221 -15.5544
lclavicle -1.11319e-014 1.09332e-014
lhumerus 66.4726 -0.415778 90.9822
lradius 10.6625
lwrist -62.1429
lhand -14.9763 2.59264
lfingers 7.12502
lthumb 11.1876 32.2744
rfemur -31.3908 -27.4827 -6.59992
rtibia 101.33
rfoot -21.0922 26.1965
rtoes -5.70113
lfemur -38.5514 6.57222 -15.8021
ltibia 96.5173
lfoot -30.9404 -18.8125
ltoes -0.00687061
48
root -2.80861 12.7064 -2.9085 304.413 -81.9388 -323.393
lowerback 39.1093 -2.78577 -1.16136
upperback 3.44763 -5.21862 -3.24899
thorax -15.6456 -2.50214 -0.478003
lowerneck 6.89605 2.12999 -3.23636
upperneck -1.85813 2.55976 0.401279
head -1.80683 1.28747 0.584167
rclavicle 3.94588e-014 2.96189e-014
rhumerus 62.9433 -3.35451 -104.337
rradius 12.5769
rwrist 71.1289
rhand -17.5972 14.3839
rfingers 7.12502
rthumb 8.65911 -15.4185
lclavicle 3.94588e-014 2.96189e-014
lhumerus 66.8542 -0.409939 91.0466
lradius 10.6009
lwrist -62.1526
lhand -15.0279 2.79336
lfingers 7.12502
lthumb 11.1378 32.4778
rfemur -32.0783 -28.6797 -7.79623
rtibia 103.472
rfoot -20.4201 27.8649
rtoes -4.92449
lfemur -39.7618 7.40013 -15.2768
ltibia 98.7914
lfoot -30.6629 -19.8842
ltoes 0.117235
49
root -2.8036 12.5055 -2.90853 304.385 -81.9774 -323.722
lowerback 39.6438 -2.81147 -1.07449
upperback 3.55193 -5.24323 -3.25614
thorax -15.7226 -2.52122 -0.501745
lowerneck 7.00741 2.13403 -3.1892
upperneck -1.97353 2.56454 0.388659
head -1.86363 1.29095 0.57069
rclavicle -6.06293e-015 1.09332e-014
rhumerus 63.2856 -3.29244 -104.487
rradius 12.4697
rwrist 71.2918
rhand -17.783 14.5271
rfingers 7.12502
rthumb 8.47978 -15.2826
lclavicle -6.06293e-015 1.09332e-014
lhumerus 67.1789 -0.336851 91.3225
lradius 10.5378
lwrist -62.3405
lhand -15.0963 2.96611
lfingers 7.12502
lthumb 11.0719 32.6541
rfemur -32.6778 -29.9629 -9.06919
rtibia 105.559
rfoot -19.7725 29.5203
rtoes -4.27972
lfemur -40.9663 8.27092 -14.7031
ltibia 101.032
lfoot -30.2921 -21.0253
ltoes 0.413696
50
root -2.79943 12.3062 -2.90843 304.441 -82.0297 -324.126
lowerback 40.1313 -2.83439 -0.980159
upperback 3.6868 -5.25634 -3.24703
thorax -15.7413 -2.53775 -0.519522
lowerneck 7.00437 2.13831 -3.15836
upperneck -2.05144 2.57281 0.374243
head -1.88794 1.29617 0.560313
rclavicle -1.41634e-014 -1.53064e-014
rhumerus 63.6791 -3.19611 -104.584
rradius 12.3582
rwrist 71.4691
rhand -17.9383 14.6241
rfingers 7.12502
rthumb 8.3299 -15.1917
lclavicle -1.41634e-014 -1.53064e-014
lhumerus 67.5528 -0.245675 91.6729
lradius 10.4549
lwrist -62.618
lhand -15.1683 3.13811
lfingers 7.12502
lthumb 11.0024 32.8298
rfemur -33.2082 -31.3485 -10.4054
rtibia 107.594
rfoot -19.1929 31.1459
rtoes -3.64227
lfemur -42.1722 9.19022 -14.0851
ltibia 103.226
lfoot -29.8568 -22.1636
ltoes 0.701229
51
root -2.79504 12.1052 -2.90913 304.467 -82.0761 -324.515
lowerback 40.6695 -2.85798 -0.885427
upperback 3.79119 -5.27418 -3.25587
thorax -15.8139 -2.55482 -0.552366
lowerneck 7.06487 2.13225 -3.03921
upperneck -2.13935 2.57109 0.321361
head -1.92457 1.29654 0.522456
rclavicle 1.81391e-014 1.47101e-014
rhumerus 64.0241 -3.11207 -104.628
rradius 12.2462
rwrist 71.5751
rhand -18.0227 14.7202
rfingers 7.12502
rthumb 8.24847 -15.0988
lclavicle 1.81391e-014 1.47101e-014
lhumerus 67.8649 -0.160109 92.0082
lradius 10.3488
lwrist -62.9625
lhand -15.238 3.28282
lfingers 7.12502
lthumb 10.9352 32.9781
rfemur -33.6286 -32.7888 -11.8587
rtibia 109.575
rfoot -18.5583 32.8256
rtoes -3.08414
lfemur -43.3544 10.1576 -13.4354
ltibia 105.382
lfoot -29.3503 -23.3339
ltoes 0.947252
52
root -2.79164 11.9017 -2.90962 304.51 -82.1099 -324.93
lowerback 41.1969 -2.87936 -0.822045
upperback 3.90727 -5.29804 -3.23979
thorax -15.8598 -2.57309 -0.539377
lowerneck 7.01989 2.12924 -2.99599
upperneck -2.16022 2.57114 0.282774
head -1.92182 1.29753 0.503152
rclavicle -2.2413e-014 -3.67752e-014
rhumerus 64.3982 -3.02467 -104.803
rradius 12.1016
rwrist 71.8116
rhand -18.0625 14.8131
rfingers 7.12502
rthumb 8.21004 -15.0074
lclavicle -2.2413e-014 -3.67752e-014
lhumerus 68.2082 -0.0670704 92.3098
lradius 10.2201
lwrist -63.1879
lhand -15.2848 3.40369
lfingers 7.12502
lthumb 10.89 33.1013
rfemur -33.9096 -34.3041 -13.4643
rtibia 111.505
rfoot -17.8546 34.5945
rtoes -2.57204
lfemur -44.5013 11.1352 -12.7615
ltibia 107.476
lfoot -28.7125 -24.6019
ltoes 1.47983
53
root -2.78894 11.6957 -2.91076 304.68 -82.1799 -325.471
lowerback 41.716 -2.90725 -0.707796
upperback 4.01174 -5.30882 -3.24006
thorax -15.9196 -2.58856 -0.577157
lowerneck 7.0071 2.1215 -2.86582
upperneck -2.19061 2.5709 0.229623
head -1.92622 1.29801 0.464088
rclavicle 5.71506e-015 4.77083e-015
rhumerus 64.7328 -2.97596 -104.951
rradius 11.9675
rwrist 72.0305
rhand -18.088 14.8573
rfingers 7.12502
rthumb 8.1854 -14.9641
lclavicle 5.71506e-015 4.77083e-015
lhumerus 68.5511 -0.0442159 92.48
lradius 10.0482
lwrist -63.3289
lhand -15.2677 3.55525
lfingers 7.12502
lthumb 10.9066 33.252
rfemur -34.0971 -35.9271 -15.1854
rtibia 113.431
rfoot -17.1627 36.4091
rtoes -1.98258
lfemur -45.6489 12.1929 -11.9798
ltibia 109.539
lfoot -27.9156 -26.0425
ltoes 2.11522
54
root -2.78696 11.4889 -2.91188 304.784 -82.2358 -325.963
lowerback 42.2406 -2.92494 -0.624151
upperback 4.12243 -5.31851 -3.2286
thorax -15.9666 -2.60224 -0.586702
lowerneck 6.99863 2.10776 -2.78364
upperneck -2.22677 2.5587 0.189603
head -1.93422 1.29266 0.437805
rclavicle 2.8128e-014 3.55825e-014
rhumerus 65.0577 -2.91902 -105.085
rradius 11.8506
rwrist 72.2792
rhand -18.0449 14.9162
rfingers 7.12502
rthumb 8.227 -14.9037
lclavicle 2.8128e-014 3.55825e-014
lhumerus 68.9115 -0.0840037 92.4904
lradius 9.87366
lwrist -63.3104
lhand -15.131 3.65845
lfingers 7.12502
lthumb 11.0384 33.3482
rfemur -34.1471 -37.6542 -17.1414
rtibia 115.35
rfoot -16.3826 38.3183
rtoes -1.422
lfemur -46.7609 13.3006 -11.1695
ltibia 111.56
lfoot -27.0353 -27.497
ltoes 2.80004
